<?xml version="1.0" encoding="UTF-8"?>
<svg width="512px" height="513px" viewBox="0 0 512 513" version="1.1" xmlns="http://www.w3.org/2000/svg" xmlns:xlink="http://www.w3.org/1999/xlink">
    <title>face-1-2</title>
    <g id="Page-1" stroke="none" stroke-width="1" fill="none" fill-rule="evenodd">
        <g id="face-1-2" fill-rule="nonzero">
            <circle id="Oval" fill="#FFD93B" cx="256" cy="256" r="256"></circle>
            <path d="M512,256 C512.011849,364.548764 443.564746,461.304103 341.204725,497.432491 C238.844705,533.56088 124.827942,501.20691 56.7,416.7 C158.535044,498.919598 305.987541,491.084479 398.53601,398.53601 C491.084479,305.987541 498.919598,158.535044 416.7,56.7 C474.8,103.7 512,175.5 512,256 Z" id="Path" fill="#F4C534"></path>
            <path d="M328.4,428 C310.805388,405.948009 284.135046,393.096897 255.92405,393.077441 C227.713054,393.057985 201.025012,405.872299 183.4,427.9 C181.441496,430.473618 177.941335,431.311772 175.029538,429.904403 C172.117742,428.497035 170.600027,425.233574 171.4,422.1 C179.719029,382.019687 214.96568,353.238398 255.9,353.1 C297.155118,353.221425 332.596842,382.428418 340.6,422.9 C341.9,429.8 332.9,433.5 328.4,428 Z" id="Path" fill="#3E4347"></path>
            <path d="M269.2,222.3 C274.5,285.1 321.2,336.2 374,336.2 C426.3,336.2 464.8,285.1 459.6,222.3 C457.6,197.3 448.8,174.4 435.9,155.6 C431.8,149.5 423.7,147.6 417.4,151.4 C399.304134,162.380383 378.462955,167.998138 357.3,167.6 C334.5,167.6 315.2,162 299.5,152.8 C292.7,148.8 284.1,151.3 280.6,158.2 C271.6,176.4 267.4,198.5 269.2,222.3 L269.2,222.3 Z" id="Path" fill="#F4C534"></path>
            <path d="M357,189.5 C382.8,189.5 404,182.4 420.7,170.8 C430.7,185.4 437.7,202.9 439.4,222.4 C443.4,272 413.3,312.1 371.9,312.1 C330.3,312.1 293.5,272 289.4,222.4 C287.970595,205.79156 290.936561,189.099381 298,174 C314,183.7 333.6,189.5 357,189.5 Z" id="Path" fill="#FFFFFF"></path>
            <path d="M396.200131,246.1 C396.226796,256.362901 392.154875,266.211729 384.888501,273.459327 C377.622128,280.706924 367.762798,284.753349 357.5,284.700521 C347.254498,284.726646 337.420947,280.66843 330.176259,273.423741 C322.93157,266.179053 318.873354,256.345502 318.89987,246.1 C318.89987,224.754194 336.204194,207.45 357.55,207.45 C378.895806,207.45 396.200131,224.754194 396.200131,246.1 L396.200131,246.1 Z" id="Path" fill="#3E4347"></path>
            <path d="M380.4,241.1 C377.2,244.3 370.5,242.8 365.5,237.9 C360.7,233.1 359.3,226.4 362.5,223.2 C365.8,219.8 372.5,221.2 377.4,226.1 C382.3,231.1 383.8,237.8 380.4,241.1 L380.4,241.1 Z" id="Path" fill="#FFFFFF"></path>
            <path d="M242.8,222.3 C237.5,285.1 190.8,336.2 138,336.2 C85.7,336.2 47.2,285.1 52.4,222.3 C54.4,197.3 63.2,174.4 76.1,155.6 C80.2,149.5 88.3,147.6 94.6,151.4 C110.8,161.5 130.8,167.6 154.7,167.6 C177.5,167.6 196.8,162 212.5,152.8 C219.3,148.8 227.9,151.3 231.4,158.2 C240.4,176.4 244.6,198.5 242.8,222.3 Z" id="Path" fill="#F4C534"></path>
            <path d="M155,189.5 C129.2,189.5 108,182.4 91.3,170.8 C81.3,185.4 74.3,202.9 72.6,222.4 C68.6,272 98.7,312.1 140.1,312.1 C181.7,312.1 218.5,272 222.6,222.4 C224.029405,205.79156 221.063439,189.099381 214,174 C198,183.7 178.4,189.5 155,189.5 Z" id="Path" fill="#FFFFFF"></path>
            <path d="M115.799869,246.1 C115.773204,256.362901 119.845125,266.211729 127.111499,273.459327 C134.377872,280.706924 144.237202,284.753349 154.5,284.700521 C164.745502,284.726646 174.579053,280.66843 181.823741,273.423741 C189.06843,266.179053 193.126646,256.345502 193.10013,246.1 C193.10013,224.754194 175.795806,207.45 154.45,207.45 C133.104194,207.45 115.799869,224.754194 115.799869,246.1 Z" id="Path" fill="#3E4347"></path>
            <path d="M131.6,241.1 C134.8,244.3 141.5,242.8 146.5,237.9 C151.3,233.1 152.7,226.4 149.5,223.2 C146.2,219.8 139.5,221.2 134.6,226.1 C129.7,231.1 128.2,237.8 131.6,241.1 L131.6,241.1 Z" id="Path" fill="#FFFFFF"></path>
        </g>
    </g>
</svg>