<?xml version="1.0" encoding="UTF-8"?>
<svg width="512px" height="513px" viewBox="0 0 512 513" version="1.1" xmlns="http://www.w3.org/2000/svg" xmlns:xlink="http://www.w3.org/1999/xlink">
    <title>face-3-4</title>
    <g id="Page-1" stroke="none" stroke-width="1" fill="none" fill-rule="evenodd">
        <g id="face-3-4" fill-rule="nonzero">
            <circle id="Oval" fill="#FFD93B" cx="256" cy="256" r="256"></circle>
            <path d="M512,256 C512.011849,364.548764 443.564746,461.304103 341.204725,497.432491 C238.844705,533.56088 124.827942,501.20691 56.7,416.7 C158.535044,498.919598 305.987541,491.084479 398.53601,398.53601 C491.084479,305.987541 498.919598,158.535044 416.7,56.7 C474.8,103.7 512,175.5 512,256 Z" id="Path" fill="#F4C534"></path>
            <path d="M336.6,403.2 C330.1,411.2 320.6,413.2 311.1,408.4 C276.639898,390.123965 235.360102,390.123965 200.9,408.4 C191.5,413.3 181.9,411.7 175.3,403.8 C168.8,396.1 170.6,382.7 183.7,375.8 C228.8,351.8 283.2,351.8 328.3,375.8 C341.3,382.8 343.1,395.5 336.6,403.2 L336.6,403.2 Z" id="Path" fill="#3E4347"></path>
            <path d="M276.6,244.3 C276.6,200.448591 312.148591,164.9 356,164.9 C399.851409,164.9 435.4,200.448591 435.4,244.3 C436.871875,273.617671 422.068464,301.360705 396.895597,316.461003 C371.722729,331.561301 340.277271,331.561301 315.104403,316.461003 C289.931536,301.360705 275.128125,273.617671 276.6,244.3 Z" id="Path" fill="#FFFFFF"></path>
            <circle id="Oval" fill="#3E4347" cx="340" cy="260.4" r="36.2"></circle>
            <g id="Group" transform="translate(73.000000, 164.000000)" fill="#FFFFFF">
                <ellipse id="Oval" transform="translate(253.400000, 82.600000) rotate(-135.000000) translate(-253.400000, -82.600000) " cx="253.4" cy="82.6" rx="6.5" ry="10"></ellipse>
                <path d="M158.9,80.3 C158.9,51.9331119 143.766446,25.7210261 119.2,11.537582 C94.6335547,-2.64586223 64.3664453,-2.64586223 39.7999997,11.537582 C15.233554,25.7210261 0.0999995773,51.9331119 0.1,80.3 C-1.37187495,109.617671 13.4315357,137.360705 38.6044031,152.461003 C63.7772705,167.561301 95.2227295,167.561301 120.395597,152.461003 C145.568464,137.360705 160.371875,109.617671 158.9,80.3 Z" id="Path"></path>
            </g>
            <circle id="Oval" fill="#3E4347" cx="168.5" cy="260.4" r="36.2"></circle>
            <ellipse id="Oval" fill="#FFFFFF" transform="translate(182.100000, 246.700000) rotate(-135.000000) translate(-182.100000, -246.700000) " cx="182.1" cy="246.7" rx="10" ry="6.5"></ellipse>
        </g>
    </g>
</svg>