<?xml version="1.0" encoding="UTF-8"?>
<svg width="512px" height="513px" viewBox="0 0 512 513" version="1.1" xmlns="http://www.w3.org/2000/svg" xmlns:xlink="http://www.w3.org/1999/xlink">
    <title>face-9-10</title>
    <g id="Page-1" stroke="none" stroke-width="1" fill="none" fill-rule="evenodd">
        <g id="face-9-10" fill-rule="nonzero">
            <circle id="Oval" fill="#FFD93B" cx="256" cy="256" r="256"></circle>
            <path d="M512,256 C512.011849,364.548764 443.564746,461.304103 341.204725,497.432491 C238.844705,533.56088 124.827942,501.20691 56.7,416.7 C158.535044,498.919598 305.987541,491.084479 398.53601,398.53601 C491.084479,305.987541 498.919598,158.535044 416.7,56.7 C474.8,103.7 512,175.5 512,256 Z" id="Path" fill="#F4C534"></path>
            <path d="M232.3,201.3 C232.3,250.5 158,295.5 158,295.5 C158,295.5 83.5995126,250.5 83.5995126,201.3 C83.5050057,182.406497 97.3053143,166.312894 115.992227,163.524927 C134.67914,160.73696 152.576033,172.101546 158,190.2 C163.549805,172.273324 181.354813,161.082273 199.914925,163.855049 C218.475038,166.627825 232.231868,182.534036 232.3,201.3 L232.3,201.3 Z" id="Path" fill="#E24B4B"></path>
            <path d="M96.1,173.3 C88.1914714,180.458698 83.6858482,190.632686 83.6999668,201.3 C83.6999668,250.5 158,295.5 158,295.5 C80.2,229.8 95.6,175.2 96,173.3 L96.1,173.3 Z" id="Path" fill="#D03F3F"></path>
            <path d="M215.2,200 C211.6,203 205.4,201 201.4,195.9 C197.2,190.7 196.8,184.4 200.2,181.8 C203.8,179 209.9,181.1 214.1,186.2 C218.1,191.4 218.7,197.6 215.2,200 L215.2,200 Z" id="Path" fill="#FFFFFF"></path>
            <path d="M428.4,201.3 C428.4,250.5 354,295.5 354,295.5 C354,295.5 279.699513,250.5 279.699513,201.3 C279.605006,182.406497 293.405314,166.312894 312.092227,163.524927 C330.77914,160.73696 348.676033,172.101546 354.1,190.2 C359.649805,172.273324 377.454813,161.082273 396.014925,163.855049 C414.575038,166.627825 428.331868,182.534036 428.4,201.3 L428.4,201.3 Z" id="Path" fill="#E24B4B"></path>
            <path d="M292.2,173.3 C284.291471,180.458698 279.785848,190.632686 279.799967,201.3 C279.799967,250.5 354.1,295.5 354.1,295.5 C276.3,229.8 291.7,175.2 292.2,173.3 L292.2,173.3 Z" id="Path" fill="#D03F3F"></path>
            <path d="M411.3,200 C407.7,203 401.5,201 397.5,195.9 C393.3,190.7 392.9,184.4 396.3,181.8 C399.9,179 406,181.1 410.2,186.2 C414.2,191.4 414.8,197.6 411.3,200 L411.3,200 Z" id="Path" fill="#FFFFFF"></path>
            <path d="M381.7,374.1 C351.5,410 306.4,438.5 256,438.5 C205.6,438.5 160.6,410 130.2,374.3 C125.410889,368.64039 124.682005,360.586482 128.377228,354.159033 C132.072451,347.731585 139.399305,344.309025 146.7,345.6 C219.0442,358.36449 293.067504,358.330643 365.4,345.5 C381.6,342.8 392.4,361.6 381.7,374.1 L381.7,374.1 Z" id="Path" fill="#3E4347"></path>
            <path d="M256,438.5 C281.7,438.5 306,431 327.7,419 C318.7,385.3 287,375.7 265.1,387.3 C235.4,403.1 202.3,382.6 189.5,421.6 C209.8,432 232.3,438.6 256,438.6 L256,438.5 Z" id="Path" fill="#E24B4B"></path>
        </g>
    </g>
</svg>