<?xml version="1.0" encoding="UTF-8"?>
<svg width="9px" height="12px" viewBox="0 0 9 12" version="1.1" xmlns="http://www.w3.org/2000/svg" xmlns:xlink="http://www.w3.org/1999/xlink">
    <title>Shape Copy 4</title>
    <g id="Page-1" stroke="none" stroke-width="1" fill="none" fill-rule="evenodd">
        <g id="RLD-UI-Post-Booking-Login-(M)" transform="translate(-151.000000, -752.000000)" fill="#ED5F71" fill-rule="nonzero">
            <path d="M157.665576,756.36366 C157.665576,757.568201 156.658235,758.545447 155.41562,758.545447 C154.172829,758.545447 153.165664,757.568201 153.165664,756.36366 C153.165664,755.158774 154.173005,754.181873 155.41562,754.181873 C156.6585,754.181787 157.665576,755.158688 157.665576,756.36366 M160,756.36366 C160,753.953631 157.985406,752 155.5,752 C153.014771,752 151,753.953631 151,756.36366 C151,757.423277 151.389881,758.394836 152.037768,759.15056 L155.503892,764 L159.020697,759.079822 C159.147002,758.92654 159.262692,758.764987 159.367062,758.595162 L159.402618,758.545705 L159.39678,758.545705 C159.779763,757.903456 160,757.158846 160,756.36366" id="Shape-Copy-4"></path>
        </g>
    </g>
</svg>