<?xml version="1.0" encoding="UTF-8"?>
<svg width="288px" height="48px" viewBox="0 0 288 48" version="1.1" xmlns="http://www.w3.org/2000/svg" xmlns:xlink="http://www.w3.org/1999/xlink">
    <title>Combined Shape</title>
    <g id="Page-1" stroke="none" stroke-width="1" fill="none" fill-rule="evenodd">
        <g id="RLD-UI-Post-Booking-Login-(D)" transform="translate(-150.000000, -33.000000)" fill="#FFFFFF" fill-rule="nonzero">
            <g id="Group-5">
                <path d="M373.290558,33 C375.246662,33 378.117309,34.1768134 378.117309,37.1617778 L378.117309,37.1617778 L378.115382,37.2879668 C378.078185,38.4655553 377.468369,39.6993197 373.382012,46.1217217 C372.805295,47.0297043 372.213991,47.9635788 371.625645,48.9041688 L371.185214,49.6105709 C368.036696,54.6778486 365.100325,59.8006405 365.100325,62.0011262 C365.079857,62.3827392 365.229594,62.7539276 365.509623,63.0157521 C365.789652,63.2775766 366.171517,63.4034294 366.553431,63.3597648 C368.377434,63.3597648 370.013449,61.3243322 371.745998,59.1525307 C371.969553,58.85959 372.238835,58.5211931 372.513197,58.1928975 C375.073915,51.2330313 381.633215,45.5358403 386.124634,45.5358403 C388.837775,45.5358403 390.189266,46.9803409 391.205424,49.3339676 C391.657614,48.7884919 392.069158,48.3389795 392.521348,47.7480474 C393.705172,46.2580906 396.39291,48.566261 396.39291,50.4198684 C396.39291,51.6421381 391.31212,59.0161618 391.31212,61.7738446 C391.268184,62.1938296 391.411966,62.6118115 391.705395,62.9171159 C391.998825,63.2224202 392.412307,63.3842534 392.836357,63.3597648 C394.65528,63.3597648 396.250648,61.3243322 397.978117,59.1525307 C398.549964,58.3971298 399.169366,57.6784917 399.832605,57.000932 C400.432138,54.1725393 401.173934,51.7077972 401.575316,50.3289557 C401.992466,48.9667475 402.176243,47.5445106 402.11896,46.1217217 C402.11896,44.2529622 408.215908,46.1217217 408.215908,48.1420021 C408.215908,49.7683279 404.003934,57.8494498 404.491689,63.9911024 C405.52309,62.6201177 407.123868,60.4753623 408.759437,58.2753983 L409.227228,57.6459556 C411.644264,54.3924873 414.026168,51.1678398 414.653269,50.2834994 C415.517942,49.1033217 416.022414,47.700568 416.106375,46.2429385 C416.106375,43.3034304 422.299858,46.8288198 421.659679,48.9097087 C421.47677,49.5006408 419.795029,51.7178986 418.174257,53.8897001 C412.585388,60.9909859 409.028835,66.2386645 404.964203,74.2945328 C404.054741,76.1481402 403.008099,78.6835922 402.779463,80.0826364 C402.413646,82.118069 397.043251,80.4462869 397.134706,78.1835728 C397.22616,76.1632923 399.797039,72.1227313 401.321276,69.5973807 L401.321276,69.5973807 L402.230738,68.0821704 C400.137452,68.4912772 398.77072,66.6831262 398.953628,63.3345113 C398.973951,62.9961143 399.024759,62.662768 399.024759,62.324371 C396.535172,66.0568392 392.902407,69.2084768 389.488117,69.2084768 C386.622551,69.2084768 385.982372,67.3094131 385.982372,65.5921747 C386.006691,64.6581107 386.144881,63.7304263 386.393916,62.8294412 C385.71309,63.7335167 381.480792,69.1175641 376.51686,69.1175641 C374.017111,69.1175641 371.522443,67.5872017 371.43607,64.1426235 C368.915998,67.1730442 365.811635,69.1933247 363.098493,69.1933247 C360.913754,69.1933247 359.684203,67.9306494 359.684203,65.5770226 C359.709591,64.6433974 359.846027,63.7160383 360.090666,62.8142891 C359.592748,63.4961337 355.040361,69.102412 350.127237,69.102412 C347.668134,69.102412 345.163305,67.7033678 345.163305,63.4961337 C345.163305,55.5766343 353.902264,45.5358403 360.227847,45.5358403 C362.915585,45.5358403 364.780235,47.0308479 365.146052,49.3390183 C370.878121,40.2533508 371.527013,37.0510748 371.848335,34.1769839 L371.878099,33.9040755 C371.94923,33.2676872 372.472551,33 373.290558,33 Z M222.726428,36.5203387 L222.726428,68.7791672 L216.675207,68.7791672 L216.675207,65.7487464 C214.922575,68.0131616 212.174972,69.2931792 209.302981,69.1832233 C202.657307,69.1832233 197.830557,64.0769644 197.830557,56.9706278 C197.830557,49.8642912 202.565853,44.8893506 209.120072,44.8893506 C211.831194,44.8145374 214.451725,45.8627619 216.355117,47.7834024 L216.355117,47.7834024 L216.355117,36.5203387 L222.726428,36.5203387 Z M185.911024,44.8893506 C191.687882,44.8893506 196.377451,48.7783905 196.377451,53.8947508 C196.377451,57.6928781 193.826894,59.6828543 187.409857,59.6828543 C184.620503,59.6828543 182.628833,59.2383926 181.201131,58.2282524 C181.683806,61.6071715 183.695799,63.5769449 187.04404,63.5769449 C189.272474,63.6193328 191.399619,62.653107 192.825979,60.9505803 L192.825979,60.9505803 L196.423178,65.2032707 C194.329893,67.6932664 190.641239,69.1832233 186.637577,69.1832233 C179.356805,69.1832233 174.484327,64.1830291 174.484327,57.0615404 C174.484327,49.9400518 179.356805,44.8893506 185.911024,44.8893506 Z M261.182927,44.8893506 C266.964866,44.8893506 271.654435,48.7783905 271.654435,53.8947508 C271.654435,57.6928781 269.103879,59.6828543 262.686841,59.6828543 C259.897487,59.6828543 257.905818,59.2383926 256.478116,58.2282524 C256.960791,61.6071715 258.972784,63.5769449 262.321024,63.5769449 C264.549458,63.6193328 266.676604,62.653107 268.102963,60.9505803 L268.102963,60.9505803 L271.700162,65.2032707 C269.606877,67.6932664 265.918223,69.1832233 261.914561,69.1832233 C254.633789,69.1832233 249.761311,64.1830291 249.761311,57.0615404 C249.761311,49.9400518 254.633789,44.8893506 261.182927,44.8893506 Z M281.07422,38.2830334 L281.07422,45.4348263 L286.353161,45.4348263 L286.353161,50.6370485 L281.07422,50.6370485 L281.07422,58.3292664 C281.07422,61.5415124 282.578134,63.4860323 285.260791,63.4860323 C287.460773,63.4860323 289.406716,62.0920388 290.570216,59.637398 C290.539732,59.3545588 290.539732,59.0717195 290.539732,58.7787788 L290.539732,58.7787788 L290.539732,50.6370485 L287.719893,50.6370485 L287.719893,45.4348263 L290.539732,45.4348263 L290.539732,38.2830334 L297.002497,38.2830334 L297.002497,45.4348263 L302.982586,45.4348263 L302.982586,50.6370485 L297.017739,50.6370485 L297.017739,58.3292664 C297.017739,61.5415124 298.521653,63.4860323 301.20431,63.4860323 C302.849276,63.4555626 304.392056,62.6868844 305.401042,61.395042 C304.938742,59.9966486 304.70544,58.5335054 304.710055,57.0615404 C304.710055,49.9400518 309.577452,44.8893506 316.131671,44.8893506 C321.91361,44.8893506 326.603179,48.7783905 326.603179,53.8947508 C326.603179,57.6928781 324.052622,59.6828543 317.635585,59.6828543 C314.846231,59.6828543 312.849481,59.2383926 311.426859,58.2282524 C311.904454,61.6071715 313.921527,63.5769449 317.269768,63.5769449 C319.489357,63.6116356 321.605557,62.6461397 323.026303,60.9505803 L323.026303,60.9505803 L326.623502,65.2032707 C324.530217,67.6932664 320.841563,69.1832233 316.837901,69.1832233 C312.930773,69.1832233 309.729875,67.733672 307.590863,65.299234 C306.056464,67.7488241 303.048637,69.1832233 299.771527,69.1832233 C296.214974,69.1832233 293.481509,67.5265933 291.957272,64.7790118 C290.524489,67.5467961 287.333753,69.1832233 283.828008,69.1832233 C278.147685,69.1832233 274.591132,64.9305329 274.591132,58.7787788 L274.591132,58.7787788 L274.591132,50.6370485 L271.771294,50.6370485 L271.771294,45.4348263 L274.591132,45.4348263 L274.591132,38.2830334 L281.07422,38.2830334 Z M431.811097,45.4348263 C434.951025,45.4348263 438.045226,47.0510507 437.999499,50.1976375 C437.999499,52.0057885 436.983341,55.2483387 435.459104,55.2483387 C434.412462,55.2483387 432.593539,54.0412211 432.593539,52.9300669 C432.593539,52.2381208 433.411546,52.0057885 433.411546,50.6168457 C433.411546,49.6925674 433.091456,49.2279029 432.044813,49.2279029 C429.606034,49.2279029 426.964024,51.8189126 426.964024,54.1371844 C426.964024,57.6524725 433.792605,59.2737475 433.792605,63.1627874 C433.792605,66.4507939 429.011582,69.1781726 424.052731,69.1781726 C420.140523,69.1781726 416.360415,67.2336526 416.360415,64.5517303 C416.314598,63.9217542 416.54248,63.3024507 416.986389,62.8505484 C417.430299,62.3986462 418.047696,62.1574508 418.682336,62.1880021 C421.049984,62.1880021 420.272623,65.1527637 424.550648,65.1527637 C426.55756,65.1527637 427.873485,63.9961531 427.873485,62.2839654 C427.873485,59.2737475 421.141438,58.5818015 421.141438,53.4401877 C421.141438,48.5359568 427.487345,45.4348263 431.811097,45.4348263 Z M162.92553,36.5203387 C169.931939,36.5203387 174.301418,40.6316095 174.301418,47.197521 C174.301418,51.7381014 172.25386,55.0463106 168.275602,57.0261855 L168.275602,57.0261855 L175.805332,68.8044207 L168.067289,68.8044207 L161.675655,58.3545199 L156.554219,58.3545199 L156.554219,68.7791672 L150,68.7791672 L150,36.5203387 Z M237.928151,36.5203387 L237.928151,63.0314692 L249.669857,63.0314692 L249.669857,68.7791672 L231.373932,68.7791672 L231.373932,36.5203387 L237.928151,36.5203387 Z M342.379032,44.8893506 L342.379032,51.8138619 C341.851869,51.7252698 341.318303,51.6796616 340.783664,51.677493 C337.145818,51.677493 334.686716,54.0715253 334.686716,57.8747033 L334.686716,57.8747033 L334.686716,68.7791672 L328.223951,68.7791672 L328.223951,45.4348263 L334.686716,45.4348263 L334.686716,49.142041 C336.459912,46.3843581 339.117165,44.8893506 341.870953,44.8893506 L341.870953,44.8893506 L342.379032,44.8893506 Z M361.172874,49.8137842 C358.810307,49.8137842 355.985387,52.8947119 354.710109,54.4755814 C352.891186,56.6928392 350.980809,59.8596289 350.980809,62.0768867 C350.980809,63.5264379 351.798817,64.3396008 352.982641,64.3396008 C356.986303,64.3396008 362.859696,55.1119698 362.859696,51.7178986 C362.859696,51.1724228 362.697111,49.8137842 361.172874,49.8137842 Z M387.344023,49.8137842 C385.083072,49.8137842 382.156537,53.0714865 381.01844,54.4755814 C379.199517,56.6928392 377.284059,59.8596289 377.284059,61.9859741 C377.284059,63.5264379 378.015693,64.3396008 379.423072,64.3396008 C383.248907,64.3396008 389.117324,55.0665135 389.117324,52.1219547 L389.117324,52.1219547 L389.117326,51.9380624 C389.114328,51.1028469 389.033023,49.8137842 387.344023,49.8137842 Z M210.486805,50.5410852 C206.935333,50.5410852 204.430503,53.3088694 204.430503,57.1069967 C204.430503,60.905124 206.843878,63.4860323 210.441078,63.4860323 C214.033196,63.4860323 216.720934,60.8243128 216.720934,57.1069967 C216.720934,53.3896807 214.038277,50.5410852 210.486805,50.5410852 Z M185.773842,50.409767 C183.192801,50.409767 181.511059,52.0764984 181.155404,55.2483387 L181.155404,55.2483387 L190.112837,55.2483387 C189.94009,52.2128673 188.426015,50.409767 185.773842,50.409767 Z M261.050827,50.409767 C258.469785,50.409767 256.808367,52.0764984 256.432389,55.2483387 L256.432389,55.2483387 L265.389821,55.2483387 C265.217074,52.2128673 263.702999,50.409767 261.050827,50.409767 Z M315.99449,50.409767 L315.979247,50.409767 C313.403287,50.409767 311.721545,52.0764984 311.36589,55.2483387 L311.36589,55.2483387 L320.338565,55.2483387 C320.165818,52.2128673 318.651743,50.409767 315.99449,50.409767 L315.99449,50.409767 Z M162.376804,42.2680367 L156.554219,42.2680367 L156.554219,52.5815685 L162.376804,52.5815685 C165.608187,52.5815685 167.569372,50.5158317 167.569372,47.3187378 C167.569372,44.121644 165.699641,42.2680367 162.376804,42.2680367 L162.376804,42.2680367 Z" id="Combined-Shape"></path>
            </g>
        </g>
    </g>
</svg>